<svg width="25" height="24" viewBox="0 0 25 24" fill="none" xmlns="http://www.w3.org/2000/svg">
  <g clip-path="url(#clip0_3409_38663)">
    <path
      d="M4.41095 4.64195C4.534 4.57186 4.66971 4.52659 4.81034 4.50874C4.95097 4.49089 5.09375 4.5008 5.23053 4.53791C5.36731 4.57502 5.4954 4.63859 5.60749 4.725C5.71957 4.81141 5.81345 4.91896 5.88376 5.0415L7.69322 8.19391C9.20662 7.52669 10.8438 7.1831 12.499 7.18535C14.0431 7.18535 15.518 7.47857 16.8711 8.01239L18.5759 5.0415C18.7178 4.7941 18.9527 4.61296 19.2288 4.53792C19.5049 4.46289 19.7996 4.50012 20.0482 4.64141C20.2967 4.7827 20.4787 5.01649 20.554 5.29133C20.6294 5.56618 20.592 5.85958 20.4501 6.10698L18.7982 8.98442C20.3331 9.941 21.6277 11.2345 22.583 12.7659C23.5383 14.2974 24.1289 16.0261 24.3096 17.8198C24.3245 17.969 24.3079 18.1198 24.2607 18.2622C24.2135 18.4047 24.1369 18.5358 24.0358 18.647C23.9347 18.7582 23.8112 18.847 23.6735 18.9079C23.5357 18.9687 23.3867 19.0001 23.236 19.0002H1.76419C1.6135 19.0001 1.46448 18.9687 1.32673 18.9079C1.18898 18.847 1.06556 18.7582 0.964424 18.647C0.863283 18.5358 0.786665 18.4047 0.739503 18.2622C0.692342 18.1198 0.675685 17.969 0.690603 17.8198C0.863021 16.1044 1.4106 14.4475 2.2949 12.9653C3.17919 11.4831 4.37874 10.2116 5.80931 9.24005L4.00956 6.10698C3.86771 5.8597 3.8303 5.56647 3.90557 5.29175C3.98084 5.01702 4.16262 4.78329 4.41095 4.64195ZM7.64467 15.2409C7.78638 15.2409 7.9267 15.2132 8.05763 15.1592C8.18856 15.1052 8.30752 15.0261 8.40773 14.9264C8.50795 14.8266 8.58744 14.7082 8.64167 14.5779C8.69591 14.4476 8.72382 14.3079 8.72382 14.1668C8.72382 14.0258 8.69591 13.8861 8.64167 13.7558C8.58744 13.6254 8.50795 13.507 8.40773 13.4073C8.30752 13.3075 8.18856 13.2284 8.05763 13.1745C7.9267 13.1205 7.78638 13.0927 7.64467 13.0928C7.35853 13.0928 7.08413 13.206 6.88182 13.4074C6.6795 13.6088 6.56585 13.882 6.56585 14.1668C6.56585 14.4517 6.6795 14.7248 6.88182 14.9263C7.08413 15.1277 7.35853 15.2409 7.64467 15.2409ZM18.4345 14.1668C18.4345 13.882 18.3209 13.6088 18.1185 13.4073C17.9162 13.2059 17.6417 13.0928 17.3555 13.0928C17.0694 13.0928 16.7949 13.2059 16.5926 13.4073C16.3902 13.6088 16.2766 13.882 16.2766 14.1668C16.2766 14.4517 16.3902 14.7249 16.5926 14.9263C16.7949 15.1277 17.0694 15.2409 17.3555 15.2409C17.6417 15.2409 17.9162 15.1277 18.1185 14.9263C18.3209 14.7249 18.4345 14.4517 18.4345 14.1668Z"
      fill="#121212" />
  </g>
  <defs>
    <clipPath id="clip0_3409_38663">
      <rect width="24" height="24" fill="white" transform="translate(0.5)" />
    </clipPath>
  </defs>
</svg>
  